# xmcd
#
# Track frame offsets:
#	150
#	15152
#	27052
#	34785
#	49517
#	61142
#	70402
#	83820
#	94927
#	112195
#	122482
#	134667
#	148770
#
# Disc length: 2183 seconds
#
# Revision: 1
# Processed by: cddbd v1.5.2PL0 Copyright (c) Steve Scherf et al.
# Submitted via: audiograbber 1.83.01
#
DISCID=ad08850d
DTITLE=Terry Sumsion - White Christmas
DYEAR=1995
DGENRE=Country
TTITLE0=White Christmas
TTITLE1=Winter Wonderland
TTITLE2=Frosty the Snowman
TTITLE3=Silver Bells
TTITLE4=I Saw Mommy Kissing Santa Claus
TTITLE5=Deck the Halls
TTITLE6=God Rest Ye Merry Gentlemen
TTITLE7=Rudolph the Rednosed Reindeer
TTITLE8=The First Noel
TTITLE9=Away in a Manger
TTITLE10=Jingle Bells
TTITLE11=Silent Night
TTITLE12=White Christmas
EXTD=
EXTT0=
EXTT1=
EXTT2=
EXTT3=
EXTT4=
EXTT5=
EXTT6=
EXTT7=
EXTT8=
EXTT9=
EXTT10=
EXTT11=
EXTT12=
PLAYORDER=
